<svg width="12" height="27" viewBox="0 0 12 27" fill="none" xmlns="http://www.w3.org/2000/svg">
<path d="M6.75 0.948242L6.75 0.198242L5.25 0.198242L5.25 0.948242L6.75 0.948242ZM5.46967 26.4786C5.76256 26.7715 6.23744 26.7715 6.53033 26.4786L11.3033 21.7056C11.5962 21.4127 11.5962 20.9378 11.3033 20.6449C11.0104 20.352 10.5355 20.352 10.2426 20.6449L6 24.8876L1.75736 20.6449C1.46447 20.352 0.989593 20.352 0.6967 20.6449C0.403807 20.9378 0.403807 21.4127 0.6967 21.7056L5.46967 26.4786ZM5.25 0.948242L5.25 25.9482L6.75 25.9482L6.75 0.948242L5.25 0.948242Z" fill="#61AFD2"/>
</svg>
