<svg width="12" height="27" viewBox="0 0 12 27" fill="none" xmlns="http://www.w3.org/2000/svg">
<path d="M5.25 25.9482L5.25 26.6982L6.75 26.6982L6.75 25.9482L5.25 25.9482ZM6.53033 0.417912C6.23744 0.125019 5.76256 0.125019 5.46967 0.417912L0.696699 5.19088C0.403806 5.48378 0.403806 5.95865 0.696699 6.25154C0.989593 6.54444 1.46447 6.54444 1.75736 6.25154L6 2.0089L10.2426 6.25154C10.5355 6.54444 11.0104 6.54444 11.3033 6.25154C11.5962 5.95865 11.5962 5.48378 11.3033 5.19088L6.53033 0.417912ZM6.75 25.9482L6.75 0.948242L5.25 0.948242L5.25 25.9482L6.75 25.9482Z" fill="#61AFD2"/>
</svg>
